<?xml version="1.0" standalone="no"?>
<!DOCTYPE svg PUBLIC "-//W3C//DTD SVG 20010904//EN"
 "http://www.w3.org/TR/2001/REC-SVG-20010904/DTD/svg10.dtd">
<svg version="1.0" xmlns="http://www.w3.org/2000/svg"
 width="800.000000pt" height="800.000000pt" viewBox="0 0 800.000000 800.000000"
 preserveAspectRatio="xMidYMid meet">

<g transform="translate(0.000000,800.000000) scale(0.100000,-0.100000)"
fill="#000000" stroke="none">
<path d="M1850 5495 l0 -725 720 0 720 0 0 -350 0 -350 -355 0 -355 0 0 -1080
0 -1080 355 0 355 0 0 355 0 355 720 0 720 0 0 -350 0 -350 370 0 370 0 0
1075 0 1075 -360 0 -360 0 0 350 0 350 720 0 720 0 0 725 0 725 -725 0 -725 0
0 -720 0 -720 -720 0 -720 0 0 720 0 720 -725 0 -725 0 0 -725z"/>
</g>
</svg>
